Title                            : Terminator Salvation
Year                             : 2009
Genre                            : Action | Adventure | Sci-Fi | Thriller
iMDB URL                         : http://www.imdb.com/title/tt0438488/
Awards                           : 5 nominations

Complete name                    : Terminator.Salvation.2009.DVDRIP.H264-ZEKTORM.mp4
Format                           : MPEG-4
Format profile                   : Base Media
Codec ID                         : isom
File size                        : 701 MiB
Duration                         : 1h 57mn
Overall bit rate                 : 834 Kbps
Subtitles                        : English (Format: srt)

Video
Format                           : AVC
Format/Info                      : Advanced Video Codec
Format profile                   : High@L4.1
Codec ID                         : avc1
Codec ID/Info                    : Advanced Video Coding
Duration                         : 1h 57mn
Bit rate mode                    : Variable
Bit rate                         : 751 Kbps
Maximum bit rate                 : 8426 Kbps
Width                            : 720 pixels
Height                           : 304 pixels
Display aspect ratio             : 2.425
Frame rate mode                  : Constant
Frame rate                       : 23.976 fps
Resolution                       : 24 bits
Colorimetry                      : 4:2:0
Scan type                        : Progressive
Bits/(Pixel*Frame)               : 0.143
Stream size                      : 631 MiB (90%)
Title                            : Video
Writing library                  : x264

Audio
Format                           : AAC
Format/Info                      : Advanced Audio Codec
Format version                   : Version 4
Format profile                   : LC
Format settings, SBR             : Yes
Format settings, PS              : No
Codec ID                         : 40
Duration                         : 1h 57mn
Bit rate mode                    : Variable
Bit rate                         : 80.2 Kbps
Maximum bit rate                 : 110 Kbps
Channel(s)                       : 2 channels
Channel positions                : L R
Sampling rate                    : 48.0 KHz
Resolution                       : 16 bits
Stream size                      : 67.4 MiB (10%)
Title                            : English
Language                         : English
